HIERARCHY
ROOT Hip
{
  OFFSET 0.000000 0.000000 0.000000
  CHANNELS 6 Xposition Yposition Zposition Zrotation Xrotation Yrotation
  JOINT RHip
  {
    OFFSET 0.000000 0.000000 0.000000
    CHANNELS 3 Xposition Yposition Zposition
    End Site
    {
      OFFSET 0.000000 0.100000 0.000000
    }
  }
  JOINT RKnee
  {
    OFFSET 0.000000 0.000000 0.000000
    CHANNELS 3 Xposition Yposition Zposition
    End Site
    {
      OFFSET 0.000000 0.100000 0.000000
    }
  }
  JOINT RFoot
  {
    OFFSET 0.000000 0.000000 0.000000
    CHANNELS 3 Xposition Yposition Zposition
    End Site
    {
      OFFSET 0.000000 0.100000 0.000000
    }
  }
  JOINT LHip
  {
    OFFSET 0.000000 0.000000 0.000000
    CHANNELS 3 Xposition Yposition Zposition
    End Site
    {
      OFFSET 0.000000 0.100000 0.000000
    }
  }
  JOINT LKnee
  {
    OFFSET 0.000000 0.000000 0.000000
    CHANNELS 3 Xposition Yposition Zposition
    End Site
    {
      OFFSET 0.000000 0.100000 0.000000
    }
  }
  JOINT LFoot
  {
    OFFSET 0.000000 0.000000 0.000000
    CHANNELS 3 Xposition Yposition Zposition
    End Site
    {
      OFFSET 0.000000 0.100000 0.000000
    }
  }
  JOINT Spine
  {
    OFFSET 0.000000 0.000000 0.000000
    CHANNELS 3 Xposition Yposition Zposition
    End Site
    {
      OFFSET 0.000000 0.100000 0.000000
    }
  }
  JOINT Thorax
  {
    OFFSET 0.000000 0.000000 0.000000
    CHANNELS 3 Xposition Yposition Zposition
    End Site
    {
      OFFSET 0.000000 0.100000 0.000000
    }
  }
  JOINT Nose
  {
    OFFSET 0.000000 0.000000 0.000000
    CHANNELS 3 Xposition Yposition Zposition
    End Site
    {
      OFFSET 0.000000 0.100000 0.000000
    }
  }
  JOINT Head
  {
    OFFSET 0.000000 0.000000 0.000000
    CHANNELS 3 Xposition Yposition Zposition
    End Site
    {
      OFFSET 0.000000 0.100000 0.000000
    }
  }
  JOINT LShoulder
  {
    OFFSET 0.000000 0.000000 0.000000
    CHANNELS 3 Xposition Yposition Zposition
    End Site
    {
      OFFSET 0.000000 0.100000 0.000000
    }
  }
  JOINT LElbow
  {
    OFFSET 0.000000 0.000000 0.000000
    CHANNELS 3 Xposition Yposition Zposition
    End Site
    {
      OFFSET 0.000000 0.100000 0.000000
    }
  }
  JOINT LWrist
  {
    OFFSET 0.000000 0.000000 0.000000
    CHANNELS 3 Xposition Yposition Zposition
    End Site
    {
      OFFSET 0.000000 0.100000 0.000000
    }
  }
  JOINT RShoulder
  {
    OFFSET 0.000000 0.000000 0.000000
    CHANNELS 3 Xposition Yposition Zposition
    End Site
    {
      OFFSET 0.000000 0.100000 0.000000
    }
  }
  JOINT RElbow
  {
    OFFSET 0.000000 0.000000 0.000000
    CHANNELS 3 Xposition Yposition Zposition
    End Site
    {
      OFFSET 0.000000 0.100000 0.000000
    }
  }
  JOINT RWrist
  {
    OFFSET 0.000000 0.000000 0.000000
    CHANNELS 3 Xposition Yposition Zposition
    End Site
    {
      OFFSET 0.000000 0.100000 0.000000
    }
  }
}
MOTION
Frames: 23
Frame Time: 0.033333
-0.144594 0.893176 -0.000008 0.000000 0.000000 0.000000 0.144308 0.007956 0.037995 0.265953 -0.243585 -0.475026 0.164702 -0.638901 -0.648511 -0.144312 -0.007896 -0.037958 -0.151898 -0.277832 -0.634940 -0.131912 -0.702738 -0.746518 0.013263 0.229352 -0.101202 0.036523 0.523812 -0.232170 0.158552 0.497511 -0.361503 0.091719 0.628665 -0.337457 -0.106415 0.490411 -0.316898 0.066149 0.494022 -0.571729 0.194349 0.638496 -0.432497 0.190039 0.509640 -0.144944 0.441128 0.512017 -0.196604 0.320357 0.633508 -0.437520
-0.146222 0.891785 -0.000006 0.000000 0.000000 0.000000 0.143915 0.008236 0.038730 0.270315 -0.240732 -0.471813 0.166855 -0.638907 -0.638261 -0.143919 -0.008176 -0.038698 -0.151942 -0.276101 -0.637564 -0.134532 -0.704446 -0.744147 0.013720 0.229069 -0.099334 0.038610 0.524257 -0.228857 0.163489 0.497186 -0.357045 0.098235 0.629327 -0.335375 -0.104817 0.490769 -0.315214 0.067708 0.503541 -0.571402 0.187117 0.656704 -0.422476 0.191060 0.511299 -0.139520 0.440720 0.523158 -0.188685 0.313753 0.648928 -0.425288
-0.147943 0.889684 -0.000003 0.000000 0.000000 0.000000 0.143412 0.008354 0.039526 0.274426 -0.237403 -0.469329 0.168808 -0.638156 -0.632631 -0.143416 -0.008295 -0.039498 -0.151834 -0.273202 -0.639376 -0.136996 -0.705514 -0.743120 0.014462 0.228188 -0.098626 0.041080 0.523329 -0.228081 0.168403 0.494676 -0.354830 0.104166 0.627716 -0.335486 -0.102847 0.489707 -0.316147 0.070498 0.509605 -0.574416 0.180734 0.670963 -0.419621 0.192755 0.511103 -0.136744 0.440534 0.531907 -0.186312 0.307705 0.660482 -0.418451
-0.149674 0.886489 0.000000 0.000000 0.000000 0.000000 0.142840 0.008384 0.040277 0.278389 -0.234084 -0.467784 0.170827 -0.636858 -0.629641 -0.142843 -0.008324 -0.040256 -0.151323 -0.269873 -0.640890 -0.139029 -0.705847 -0.742637 0.015496 0.226533 -0.099316 0.043903 0.520822 -0.230280 0.173358 0.490025 -0.355624 0.109620 0.623871 -0.338626 -0.100797 0.487202 -0.319825 0.073664 0.511711 -0.580444 0.174956 0.680251 -0.423271 0.195152 0.509022 -0.137218 0.440075 0.537578 -0.189322 0.301857 0.667993 -0.417034
-0.151398 0.881417 0.000004 0.000000 0.000000 0.000000 0.142323 0.008367 0.040867 0.282022 -0.231174 -0.467136 0.173202 -0.634893 -0.629028 -0.142325 -0.008307 -0.040853 -0.150455 -0.266664 -0.642697 -0.140351 -0.705355 -0.743980 0.016783 0.224399 -0.100753 0.047086 0.517101 -0.234333 0.178091 0.483764 -0.358598 0.114816 0.618386 -0.344091 -0.098763 0.483717 -0.324652 0.076307 0.510197 -0.586879 0.170189 0.684313 -0.429795 0.198430 0.505591 -0.139993 0.439871 0.539989 -0.195429 0.296795 0.671938 -0.420179
-0.153426 0.873950 0.000007 0.000000 0.000000 0.000000 0.141913 0.008350 0.041370 0.285187 -0.228518 -0.467358 0.176261 -0.632023 -0.632856 -0.141916 -0.008290 -0.041362 -0.149120 -0.263701 -0.644864 -0.140692 -0.704137 -0.749924 0.018178 0.222078 -0.102269 0.050431 0.512547 -0.239055 0.182306 0.476399 -0.362903 0.119467 0.611736 -0.351116 -0.096915 0.479567 -0.329239 0.077365 0.505578 -0.592055 0.167042 0.682490 -0.439554 0.202468 0.501155 -0.143949 0.440327 0.539110 -0.203105 0.293027 0.671862 -0.427940
-0.155936 0.865045 0.000008 0.000000 0.000000 0.000000 0.141625 0.008467 0.041877 0.287921 -0.225401 -0.468369 0.180079 -0.628075 -0.643030 -0.141628 -0.008408 -0.041872 -0.147222 -0.260829 -0.646875 -0.140112 -0.702400 -0.761884 0.019561 0.219851 -0.103266 0.053651 0.507700 -0.243061 0.186054 0.468484 -0.367018 0.123390 0.604488 -0.358116 -0.095578 0.474819 -0.332158 0.075506 0.498102 -0.595097 0.166439 0.674362 -0.454854 0.206889 0.496042 -0.147847 0.441505 0.535555 -0.211755 0.291236 0.667309 -0.440174
-0.158798 0.855705 0.000009 0.000000 0.000000 0.000000 0.141494 0.008911 0.042301 0.290021 -0.221572 -0.470376 0.184325 -0.623521 -0.661030 -0.141497 -0.008852 -0.042296 -0.144800 -0.257714 -0.647799 -0.138970 -0.700406 -0.778882 0.021008 0.217899 -0.103746 0.056752 0.502952 -0.245980 0.189293 0.460450 -0.369958 0.126686 0.597156 -0.363987 -0.094759 0.469414 -0.333070 0.070528 0.487973 -0.596789 0.168651 0.660417 -0.476136 0.211412 0.490683 -0.151529 0.443702 0.530074 -0.222280 0.292847 0.658239 -0.456747
-0.162191 0.846213 0.000008 0.000000 0.000000 0.000000 0.141458 0.009777 0.042593 0.291406 -0.217861 -0.473884 0.188665 -0.619831 -0.685248 -0.141461 -0.009718 -0.042588 -0.141817 -0.254129 -0.647310 -0.137399 -0.698670 -0.799187 0.022565 0.216087 -0.104332 0.059776 0.498039 -0.249337 0.191862 0.452196 -0.373071 0.129512 0.589582 -0.370049 -0.094115 0.463207 -0.333701 0.064504 0.475013 -0.600384 0.172394 0.640540 -0.501805 0.215861 0.485293 -0.156543 0.447418 0.522518 -0.237102 0.298531 0.644241 -0.479411
-0.166372 0.837330 0.000007 0.000000 0.000000 0.000000 0.141233 0.010930 0.042862 0.292439 -0.214903 -0.479417 0.193371 -0.617651 -0.713440 -0.141236 -0.010870 -0.042855 -0.138653 -0.250037 -0.645935 -0.135047 -0.697317 -0.822611 0.023919 0.214240 -0.105531 0.062250 0.492733 -0.254827 0.193554 0.443354 -0.378224 0.131777 0.581447 -0.378133 -0.093425 0.456176 -0.336030 0.060829 0.458470 -0.606506 0.176601 0.614216 -0.528275 0.219733 0.479928 -0.164223 0.452327 0.512135 -0.256619 0.307291 0.624932 -0.508484
-0.171138 0.829407 0.000005 0.000000 0.000000 0.000000 0.140578 0.011959 0.043041 0.293115 -0.212666 -0.486586 0.198760 -0.616071 -0.746944 -0.140582 -0.011899 -0.043029 -0.136255 -0.245701 -0.643674 -0.131596 -0.695543 -0.851788 0.024863 0.212299 -0.108107 0.063746 0.487095 -0.263641 0.194325 0.433579 -0.386454 0.133546 0.572540 -0.389055 -0.092648 0.448237 -0.341491 0.060921 0.437226 -0.614029 0.181591 0.581913 -0.555011 0.222459 0.474433 -0.175092 0.457499 0.497771 -0.278581 0.317612 0.600205 -0.540038
-0.176222 0.821659 0.000003 0.000000 0.000000 0.000000 0.139762 0.012559 0.042874 0.293402 -0.210688 -0.493149 0.204533 -0.614465 -0.785016 -0.139766 -0.012499 -0.042858 -0.134937 -0.241137 -0.640101 -0.127798 -0.691832 -0.887700 0.025659 0.209842 -0.112573 0.064807 0.480337 -0.275492 0.194804 0.422152 -0.397524 0.135520 0.561736 -0.402187 -0.091565 0.438787 -0.350112 0.063513 0.410379 -0.623077 0.188169 0.544447 -0.583332 0.224558 0.467895 -0.188584 0.462944 0.477064 -0.301859 0.328847 0.569085 -0.570053
-0.181524 0.814018 0.000002 0.000000 0.000000 0.000000 0.139305 0.012935 0.042454 0.293796 -0.208579 -0.496570 0.210279 -0.612922 -0.818945 -0.139309 -0.012876 -0.042437 -0.133886 -0.236210 -0.636011 -0.124663 -0.686097 -0.923532 0.026604 0.206375 -0.117688 0.066732 0.471077 -0.287397 0.195823 0.407899 -0.409209 0.138451 0.547429 -0.415078 -0.089659 0.426938 -0.359112 0.066727 0.378615 -0.631647 0.196514 0.502494 -0.609523 0.227514 0.459009 -0.201693 0.469351 0.448331 -0.323115 0.341588 0.530340 -0.593849
-0.186765 0.806946 0.000003 0.000000 0.000000 0.000000 0.139355 0.013413 0.042281 0.294815 -0.206612 -0.496843 0.215817 -0.611785 -0.841043 -0.139359 -0.013353 -0.042265 -0.132343 -0.231711 -0.632700 -0.121991 -0.680318 -0.951540 0.027725 0.202022 -0.121865 0.070327 0.459131 -0.297195 0.197395 0.390408 -0.419920 0.142366 0.529459 -0.426268 -0.086704 0.412655 -0.366450 0.068928 0.343709 -0.637172 0.205375 0.455704 -0.631196 0.232387 0.447510 -0.211729 0.476473 0.412224 -0.336954 0.355847 0.483847 -0.608305
-0.191481 0.800502 0.000003 0.000000 0.000000 0.000000 0.139650 0.014035 0.042747 0.296925 -0.205639 -0.495987 0.221395 -0.611621 -0.851671 -0.139654 -0.013975 -0.042732 -0.129982 -0.228801 -0.630894 -0.118570 -0.676443 -0.970046 0.029023 0.196999 -0.125343 0.075314 0.445400 -0.306301 0.198944 0.370533 -0.430926 0.146728 0.509079 -0.437346 -0.083038 0.396833 -0.373827 0.068925 0.306458 -0.639853 0.213993 0.402742 -0.649939 0.238949 0.434026 -0.219846 0.482137 0.370557 -0.342382 0.370019 0.430299 -0.615411
-0.195723 0.795049 0.000003 0.000000 0.000000 0.000000 0.139929 0.014730 0.043463 0.300019 -0.205937 -0.495561 0.226687 -0.611835 -0.855712 -0.139934 -0.014671 -0.043448 -0.126463 -0.227193 -0.630566 -0.113854 -0.674539 -0.983507 0.030747 0.191357 -0.128467 0.081268 0.430703 -0.314918 0.200058 0.349402 -0.441641 0.151166 0.487527 -0.447659 -0.078883 0.380493 -0.381205 0.065847 0.267299 -0.640047 0.222634 0.343537 -0.664206 0.246385 0.419317 -0.227173 0.483509 0.325666 -0.340497 0.382314 0.371371 -0.617175
-0.200122 0.790873 0.000002 0.000000 0.000000 0.000000 0.140295 0.015397 0.043825 0.303798 -0.206529 -0.495782 0.231089 -0.610249 -0.858733 -0.140299 -0.015337 -0.043807 -0.121861 -0.224619 -0.631135 -0.108471 -0.671777 -0.998111 0.033235 0.185264 -0.130351 0.088403 0.415209 -0.319970 0.200997 0.327409 -0.447875 0.155972 0.465103 -0.452808 -0.074115 0.363619 -0.384830 0.059112 0.226617 -0.636326 0.230571 0.277470 -0.669725 0.254525 0.403800 -0.231566 0.479738 0.280342 -0.332108 0.392729 0.308631 -0.612669
-0.205144 0.787611 -0.000001 0.000000 0.000000 0.000000 0.141335 0.015952 0.043635 0.308511 -0.206699 -0.496618 0.234108 -0.607126 -0.860976 -0.141340 -0.015892 -0.043612 -0.117498 -0.219890 -0.632275 -0.104050 -0.666015 -1.013791 0.036025 0.178827 -0.130396 0.095882 0.398662 -0.320059 0.201418 0.304833 -0.448055 0.160715 0.441860 -0.451701 -0.069919 0.345769 -0.383123 0.047133 0.184025 -0.628331 0.234413 0.203380 -0.665146 0.262781 0.387718 -0.232063 0.471772 0.237589 -0.319743 0.401752 0.243308 -0.601134
-0.210044 0.785496 -0.000005 0.000000 0.000000 0.000000 0.143324 0.016575 0.043083 0.314189 -0.206761 -0.497790 0.236615 -0.605030 -0.859892 -0.143328 -0.016514 -0.043053 -0.114090 -0.214655 -0.634098 -0.101184 -0.658972 -1.027029 0.038062 0.171986 -0.129473 0.101940 0.381167 -0.317519 0.200433 0.282689 -0.445307 0.164388 0.418691 -0.447952 -0.067781 0.327078 -0.378613 0.029682 0.139175 -0.615923 0.231548 0.122749 -0.653231 0.269529 0.371172 -0.230913 0.460369 0.198970 -0.306008 0.409423 0.176479 -0.582857
-0.213850 0.784947 -0.000009 0.000000 0.000000 0.000000 0.145493 0.017236 0.042739 0.320278 -0.206982 -0.498015 0.240317 -0.604565 -0.853897 -0.145497 -0.017174 -0.042698 -0.110164 -0.210965 -0.636117 -0.098433 -0.652819 -1.034956 0.039496 0.164948 -0.128490 0.106719 0.363383 -0.314554 0.198852 0.262004 -0.442298 0.167268 0.396766 -0.444605 -0.066620 0.308119 -0.373733 0.010748 0.092972 -0.597022 0.223539 0.038289 -0.636860 0.274418 0.353964 -0.229726 0.447628 0.163256 -0.290388 0.416569 0.108167 -0.558351
-0.215942 0.785859 -0.000014 0.000000 0.000000 0.000000 0.146905 0.017564 0.042948 0.326349 -0.206995 -0.496502 0.245530 -0.604735 -0.842380 -0.146909 -0.017502 -0.042898 -0.105009 -0.209602 -0.637070 -0.095519 -0.647831 -1.036168 0.040863 0.158435 -0.126914 0.110677 0.346798 -0.310407 0.197443 0.243940 -0.438437 0.169457 0.377368 -0.441415 -0.065370 0.290425 -0.368257 -0.005365 0.049217 -0.571177 0.212220 -0.043753 -0.614448 0.277748 0.337107 -0.227317 0.435104 0.129797 -0.272622 0.421185 0.040177 -0.529929
-0.216044 0.787853 -0.000018 0.000000 0.000000 0.000000 0.147410 0.017385 0.043079 0.332287 -0.206642 -0.493554 0.250450 -0.604848 -0.826519 -0.147413 -0.017323 -0.043020 -0.100054 -0.209673 -0.636354 -0.093091 -0.643680 -1.032285 0.041944 0.152648 -0.124451 0.112913 0.332640 -0.304488 0.195189 0.228759 -0.432957 0.169862 0.360875 -0.437519 -0.064900 0.275970 -0.361195 -0.017913 0.014391 -0.541260 0.197467 -0.111822 -0.584282 0.279380 0.322437 -0.223090 0.424152 0.101270 -0.255138 0.420256 -0.019952 -0.502164
-0.213913 0.790907 -0.000021 0.000000 0.000000 0.000000 0.147225 0.016872 0.042507 0.338086 -0.206459 -0.490016 0.253501 -0.604119 -0.809065 -0.147228 -0.016811 -0.042441 -0.095893 -0.209921 -0.634711 -0.090516 -0.639960 -1.027575 0.042689 0.147241 -0.122348 0.113703 0.320567 -0.299136 0.192126 0.215448 -0.427877 0.168797 0.346483 -0.434408 -0.065016 0.265079 -0.354194 -0.027126 -0.008851 -0.511677 0.179968 -0.160031 -0.550306 0.280083 0.310412 -0.219089 0.416651 0.078366 -0.239492 0.415604 -0.067544 -0.478696
